<svg width="25" height="25" viewBox="0 0 25 25" fill="none" xmlns="http://www.w3.org/2000/svg">
<g clip-path="url(#clip0_3_77)">
<path d="M4.16667 25H8.33333V22.9167H6.25V20.8333H4.16667V18.75H2.08333V16.6667H4.16667V18.75H6.25V20.8333H8.33333V18.75H10.4167V16.6667H6.25V14.5833H4.16667V8.33334H6.25V4.16667H8.33333V6.25H14.5833V4.16667H16.6667V8.33334H18.75V14.5833H16.6667V16.6667H12.5V18.75H14.5833V25H18.75V22.9167H20.8333V20.8333H22.9167V6.25H20.8333V4.16667H18.75V2.08334H4.16667V4.16667H2.08333V6.25H0V20.8333H2.08333V22.9167H4.16667V25Z" fill="black"/>
</g>
<defs>
<clipPath id="clip0_3_77">
<rect width="25" height="25" fill="white"/>
</clipPath>
</defs>
</svg>
