<svg width="35" height="34" viewBox="0 0 35 34" fill="none" xmlns="http://www.w3.org/2000/svg">
<path d="M21.6667 0V33.3333H16.6667V31.6667H15V30H13.3333V28.3333H11.6667V26.6667H10V25H8.33333V23.3333H0V10H8.33333V8.33333H10V6.66667H11.6667V5H13.3333V3.33333H15V1.66667H16.6667V0H21.6667ZM35 10V13.3333H33.3333V15H31.6667V18.3333H33.3333V20H35V23.3333H31.6667V21.6667H30V20H28.3333V21.6667H26.6667V23.3333H23.3333V20H25V18.3333H26.6667V15H25V13.3333H23.3333V10H26.6667V11.6667H28.3333V13.3333H30V11.6667H31.6667V10H35Z" fill="black"/>
</svg>
