<svg width="25" height="25" viewBox="0 0 25 25" fill="none" xmlns="http://www.w3.org/2000/svg">
<path d="M14.5833 2.08334V22.9167H11.4583V21.875H10.4166V20.8333H9.37496V19.7917H8.33329V18.75H7.29163V17.7083H6.24996V16.6667H1.04163V8.33334H6.24996V7.29167H7.29163V6.25H8.33329V5.20834H9.37496V4.16667H10.4166V3.125H11.4583V2.08334H14.5833ZM17.7083 15.625V14.5833H16.6666V13.5417H17.7083V11.4583H16.6666V10.4167H17.7083V9.375H18.75V10.4167H19.7916V14.5833H18.75V15.625H17.7083Z" fill="black"/>
<path d="M23.9583 10.4167V14.5833H22.9167V16.6667H21.875V17.7083H20.8333V18.75H19.7917V17.7083H18.75V16.6667H19.7917V15.625H20.8333V14.5833H21.875V10.4167H20.8333V9.375H19.7917V8.33333H18.75V7.29167H19.7917V6.25H20.8333V7.29167H21.875V8.33333H22.9167V10.4167H23.9583Z" fill="black"/>
</svg>
